<?xml version="1.0" encoding="iso-8859-1"?>
<!-- Generator: Adobe Illustrator 19.0.0, SVG Export Plug-In . SVG Version: 6.00 Build 0)  -->
<svg version="1.1" id="Capa_1" xmlns="http://www.w3.org/2000/svg" xmlns:xlink="http://www.w3.org/1999/xlink" x="0px" y="0px"
	 viewBox="0 0 512 512" style="enable-background:new 0 0 512 512;" xml:space="preserve">
<circle style="fill:#7985EC;" cx="256" cy="256" r="256"/>
<path style="fill:#5663DB;" d="M512,256c0-0.097-0.004-0.194-0.004-0.292L392.81,136.523l-48.226,19.798l-15.995-16L114.234,395.399
	l115.239,115.239C238.193,511.536,247.042,512,256,512C397.385,512,512,397.385,512,256z"/>
<path style="fill:#C6E9F9;" d="M114.234,140.32l6.557,31.605l-9.145,24.491l8.894,23.815l-8.894,23.816l8.894,23.815l-8.894,23.815
	l8.894,23.816l-8.894,23.815l9.145,24.488l-6.557,31.602h214.355V140.32H114.234z"/>
<rect x="219.91" y="140.32" style="fill:#96D7F5;" width="108.68" height="255.08"/>
<polygon style="fill:#00C47A;" points="181.341,216.278 164.819,199.757 176.781,187.795 181.341,192.355 191.172,182.524 
	203.134,194.486 "/>
<rect x="219.91" y="190.59" style="fill:#0999DB;" width="63.25" height="16.917"/>
<polygon style="fill:#00C47A;" points="181.341,263.911 164.819,247.389 176.781,235.427 181.341,239.987 191.172,230.156 
	203.134,242.119 "/>
<rect x="219.91" y="238.22" style="fill:#0999DB;" width="63.25" height="16.917"/>
<polygon style="fill:#00C47A;" points="181.341,311.543 164.819,295.021 176.781,283.059 181.341,287.62 191.172,277.789 
	203.134,289.751 "/>
<rect x="219.91" y="285.85" style="fill:#0999DB;" width="63.25" height="16.917"/>
<polygon style="fill:#00C47A;" points="181.341,359.176 164.819,342.653 176.781,330.692 181.341,335.252 191.172,325.421 
	203.134,337.383 "/>
<rect x="219.91" y="333.49" style="fill:#0999DB;" width="63.25" height="16.917"/>
<path style="fill:#FFD699;" d="M344.584,335.285v35.911l27.885,30.869l27.885-30.869v-35.911H344.584z"/>
<polygon style="fill:#FFC266;" points="372.469,335.285 372.469,402.065 400.355,371.196 400.355,335.285 "/>
<polygon style="fill:#054D6E;" points="352.745,380.23 372.469,402.065 392.194,380.23 "/>
<rect x="344.58" y="161.25" style="fill:#FF9900;" width="55.771" height="188.9"/>
<rect x="372.47" y="161.25" style="fill:#FF7700;" width="27.885" height="188.9"/>
<rect x="344.58" y="161.25" style="fill:#4BBAED;" width="55.771" height="26.503"/>
<rect x="372.47" y="161.25" style="fill:#0999DB;" width="27.885" height="26.503"/>
<path style="fill:#FFD699;" d="M372.961,127.978h-0.983c-15.105,0-27.394,12.289-27.394,27.394v8.326h55.771v-8.326
	C400.355,140.267,388.066,127.978,372.961,127.978z"/>
<path style="fill:#FFC266;" d="M372.961,127.978h-0.492v35.72h27.885v-8.326C400.355,140.267,388.066,127.978,372.961,127.978z"/>
<g>
</g>
<g>
</g>
<g>
</g>
<g>
</g>
<g>
</g>
<g>
</g>
<g>
</g>
<g>
</g>
<g>
</g>
<g>
</g>
<g>
</g>
<g>
</g>
<g>
</g>
<g>
</g>
<g>
</g>
</svg>
